# xmcd
#
# Track frame offsets:
#	150
#	13028
#	22264
#	40064
#	56417
#	79955
#	96960
#	114926
#	130404
#	145786
#	156202
#	171871
#	189679
#	203421
#	214584
#
# Disc length: 3004 seconds
#
# Revision: 2
# Processed by: cddbd v1.5.2PL0 Copyright (c) Steve Scherf et al.
# Submitted via: audiograbber 1.83.01
#
DISCID=cb0bba0f
DTITLE=RAY DYLAN - GOEIE OU COUNTRY
DYEAR=1900
DGENRE=Country
TTITLE0=YOU'RE MY BEST FRIEND
TTITLE1=KISS AN ANGEL GOOD MORNIN'
TTITLE2=I NEED YOU NOW
TTITLE3=SUSPICIOUS MINDS
TTITLE4=SUNDAY MORNING COMING DOWN
TTITLE5=THE PART OF ME THAT NEEDS YOU MOST
TTITLE6=CALIFORNIA BLUE
TTITLE7=YOU NEED ME
TTITLE8=ACHY BREAKY HEART
TTITLE9=HE'LL HAVE TO GO
TTITLE10=DON'T FORGET TO REMEMBER
TTITLE11=AMAZED
TTITLE12=PRETTY WOMAN
TTITLE13=I NEED YOU
TTITLE14=I WALK THE LINE
EXTD=
EXTT0=
EXTT1=
EXTT2=
EXTT3=
EXTT4=
EXTT5=
EXTT6=
EXTT7=
EXTT8=
EXTT9=
EXTT10=
EXTT11=
EXTT12=
EXTT13=
EXTT14=
PLAYORDER=
